<svg width="31" height="33" viewBox="0 0 31 33" fill="none" xmlns="http://www.w3.org/2000/svg">
<path d="M24.3571 31.1429H22.8809V30.4048C22.8809 29.184 21.8874 28.1905 20.6666 28.1905H19.3646C18.628 28.1905 17.9652 27.7809 17.636 27.1225C17.4537 26.7579 17.0101 26.6117 16.6455 26.7926C16.2809 26.9749 16.1332 27.4185 16.3156 27.7831C16.898 28.9441 18.0663 29.6667 19.3647 29.6667H20.6667C21.0741 29.6667 21.4047 29.9974 21.4047 30.4048V31.1429H9.59518V30.4048C9.59518 29.9974 9.92661 29.6667 10.3333 29.6667H11.6353C12.9343 29.6667 14.1027 28.9441 14.6836 27.7823C14.7353 27.6805 14.7618 27.5668 14.7618 27.4524V12.6905C14.7618 12.2823 14.4312 11.9524 14.0237 11.9524C13.6163 11.9524 13.2857 12.2823 13.2857 12.6905V27.2634C12.9366 27.8391 12.318 28.1904 11.6353 28.1904H10.3333C9.11242 28.1904 8.11897 29.184 8.11897 30.4047V31.1428H6.64277C6.23535 31.1428 5.90469 31.4727 5.90469 31.8809C5.90469 32.289 6.23535 32.6191 6.64283 32.6191H8.85711H22.1429H24.3571C24.7653 32.6191 25.0952 32.2892 25.0952 31.881C25.0952 31.4728 24.7653 31.1429 24.3571 31.1429Z" fill="white"/>
<path d="M30.2619 18.5952H25.8333C25.4251 18.5952 25.0952 18.9251 25.0952 19.3333C25.0952 19.7415 25.4251 20.0714 25.8333 20.0714H29.4994C29.4552 20.7423 29.3511 21.4096 29.1872 22.0628L29.0876 22.4643C29.0049 22.7935 28.7104 23.0237 28.3709 23.0237H24.7712C24.4316 23.0237 24.1379 22.7934 24.0552 22.465L23.9541 22.0627C23.7445 21.2205 23.6308 20.3562 23.6198 19.4904L26.5714 12.9974L28.5842 17.426C28.7525 17.7958 29.1865 17.964 29.5615 17.7921C29.9327 17.623 30.0966 17.1861 29.9276 16.8149L27.2432 10.9087C27.1516 10.7079 26.9752 10.5581 26.7619 10.5012L18.4502 8.28474C18.4502 8.27738 18.4524 8.26996 18.4524 8.26184C18.4524 6.88972 17.5084 5.74417 16.2382 5.41427V0.880925C16.238 0.472753 15.9074 0.142853 15.5 0.142853C15.0926 0.142853 14.7619 0.472753 14.7619 0.880925V5.41434C13.981 5.61731 13.3315 6.12958 12.9418 6.81595L4.61898 4.59653C4.2691 4.50132 3.90596 4.67627 3.7569 5.00394L0.0664113 13.123C0.0228348 13.219 0 13.323 0 13.4285C0 14.467 0.127685 15.5056 0.380136 16.516L0.480546 16.919C0.727797 17.9051 1.61131 18.5952 2.62911 18.5952H6.22884C7.2467 18.5952 8.13015 17.9051 8.3774 16.9182L8.47781 16.5159C8.7295 15.5055 8.85719 14.467 8.85719 13.4285C8.85719 13.0203 8.52653 12.6904 8.11912 12.6904H3.69043C3.28301 12.6904 2.95235 13.0203 2.95235 13.4285C2.95235 13.8366 3.28301 14.1665 3.69043 14.1665H7.35656C7.31228 14.8374 7.2082 15.504 7.04505 16.1579L6.94464 16.5594C6.86199 16.8887 6.56749 17.1189 6.22795 17.1189H2.62905C2.29027 17.1189 1.995 16.8886 1.91312 16.5601L1.81271 16.1579C1.60237 15.3157 1.49016 14.4514 1.4776 13.5856L4.42856 7.09352L6.44133 11.5214C6.56457 11.793 6.83326 11.9539 7.11375 11.9539C7.21631 11.9539 7.31971 11.9332 7.41859 11.8875C7.78985 11.7185 7.95369 11.2816 7.78541 10.9102L5.74607 6.42484L12.5498 8.23907C12.5498 8.24719 12.5476 8.25455 12.5476 8.26197C12.5476 9.89022 13.8718 11.2143 15.5 11.2143C15.7561 11.2143 16.0004 11.1715 16.238 11.1095V25.2381C16.238 25.6463 16.5679 25.9762 16.9761 25.9762C17.3843 25.9762 17.7142 25.6463 17.7142 25.2381V10.1942C17.8449 10.0444 17.9592 9.88204 18.0582 9.70856L25.538 11.7029L22.2092 19.0277C22.1649 19.1237 22.1428 19.2278 22.1428 19.3333C22.1428 20.3725 22.2713 21.411 22.5229 22.4208L22.6241 22.8237C22.8698 23.8099 23.7541 24.5 24.7719 24.5H28.3716C29.3895 24.5 30.273 23.8099 30.5202 22.823L30.6199 22.4208C30.8716 21.411 31 20.3725 31 19.3333C31 18.9252 30.67 18.5952 30.2619 18.5952ZM15.5 9.73811C14.6858 9.73811 14.0238 9.07603 14.0238 8.2619C14.0238 7.44778 14.6858 6.7857 15.5 6.7857C16.3141 6.7857 16.9762 7.44778 16.9762 8.2619C16.9762 9.07603 16.3141 9.73811 15.5 9.73811Z" fill="white"/>
</svg>
