<svg width="37" height="37" viewBox="0 0 37 37" fill="none" xmlns="http://www.w3.org/2000/svg">
<path d="M36.3833 6.16697H31.7993L31.2064 5.18024C30.8092 4.52262 30.2435 3.98304 29.5675 3.6175L30.2025 0.75126C30.2483 0.547109 30.1875 0.333625 30.0408 0.184577C29.8942 0.0352277 29.6819 -0.0295102 29.4768 0.0126447L26.5167 0.604621L23.5568 0.0126447C23.352 -0.028607 23.1401 0.0367332 22.994 0.186082C22.848 0.335431 22.7875 0.548615 22.8335 0.752464L23.3538 3.09598C22.368 3.13843 21.5891 3.94691 21.5833 4.93363C21.5854 5.14411 21.624 5.35277 21.6969 5.5503H20.35C19.6189 5.54699 18.9553 5.97667 18.6584 6.64482C18.3618 7.31298 18.4883 8.09345 18.9812 8.63363C18.3398 9.3307 18.3398 10.4032 18.9812 11.1003C18.3398 11.7974 18.3398 12.8699 18.9812 13.567C18.9742 13.5742 18.9682 13.5829 18.9619 13.5905H18.9583V13.5941C18.6644 13.9274 18.5015 14.3559 18.5 14.8003H16.7963L11.9967 12.3954C11.0365 11.9133 9.89407 11.969 8.98503 12.542L5.37325 14.8003H0.616667C0.276115 14.8003 0 15.0764 0 15.417V24.0503C0 24.3909 0.276115 24.667 0.616667 24.667H7.4V35.1503C7.4 36.172 8.22834 37.0003 9.25 37.0003H22.8167C23.8386 37.0003 24.6667 36.172 24.6667 35.1503V23.8245C25.1638 23.947 25.6718 24.0205 26.183 24.0434C26.2966 24.0485 26.4089 24.0509 26.5218 24.0509C30.9475 24.0482 34.5339 20.4593 34.5333 16.0336H36.3833C36.7242 16.0336 37 15.7575 37 15.417V6.78363C37 6.44308 36.7242 6.16697 36.3833 6.16697ZM26.3935 1.83795C26.4733 1.85391 26.5555 1.85391 26.6353 1.83795L28.7936 1.40617L28.3995 3.18661C28.1053 3.12067 27.8048 3.08604 27.5034 3.08363H24.6113L24.2412 1.40677L26.3935 1.83795ZM23.4333 4.31697H27.5034C28.5859 4.32028 29.588 4.88787 30.1477 5.81407L30.8333 6.95436V8.61948C29.4386 8.50988 28.1818 7.73453 27.4585 6.53703L27.0454 5.84809C26.9334 5.66291 26.7329 5.55 26.5167 5.5503H23.4333C23.0928 5.5503 22.8167 5.27419 22.8167 4.93363C22.8167 4.59308 23.0928 4.31697 23.4333 4.31697ZM22.8167 14.8003C22.8167 15.1409 22.5409 15.417 22.2 15.417H20.35C20.0094 15.417 19.7333 15.1409 19.7333 14.8003C19.7333 14.4597 20.0094 14.1836 20.35 14.1836H22.2C22.5409 14.1836 22.8167 14.4597 22.8167 14.8003ZM19.7333 12.3336C19.7333 11.9931 20.0094 11.717 20.35 11.717H22.2C22.5409 11.717 22.8167 11.9931 22.8167 12.3336C22.8167 12.6742 22.5409 12.9503 22.2 12.9503H20.35C20.0094 12.9503 19.7333 12.6742 19.7333 12.3336ZM19.7333 9.86697C19.7333 9.52641 20.0094 9.2503 20.35 9.2503H22.2C22.5409 9.2503 22.8167 9.52641 22.8167 9.86697C22.8167 10.2075 22.5409 10.4836 22.2 10.4836H20.35C20.0094 10.4836 19.7333 10.2075 19.7333 9.86697ZM20.35 6.78363H22.2C22.5409 6.78363 22.8167 7.05975 22.8167 7.4003C22.8167 7.74085 22.5409 8.01697 22.2 8.01697H20.35C20.0094 8.01697 19.7333 7.74085 19.7333 7.4003C19.7333 7.05975 20.0094 6.78363 20.35 6.78363ZM9.63933 13.5905C10.1843 13.2457 10.8706 13.2123 11.4466 13.5022L14.0403 14.8003H10.4833C10.2238 14.8 9.99193 14.9626 9.9034 15.2068C9.81488 15.451 9.88865 15.7241 10.0883 15.8906L12.654 18.0297C13.0376 18.3516 13.1018 18.9173 12.7997 19.3166C12.474 19.7249 11.8814 19.7978 11.4664 19.4801L9.63481 18.0185C9.49992 17.9107 9.32558 17.8644 9.15485 17.8912C8.98382 17.918 8.83206 18.0152 8.73631 18.1591C8.45689 18.5789 8.08923 18.9324 7.65865 19.1947C7.59452 19.2389 7.52797 19.2787 7.45872 19.3142C7.05704 19.5304 6.61742 19.6662 6.16366 19.7138V15.7593L9.63933 13.5905ZM1.23333 16.0336H4.93333V23.4336H1.23333V16.0336ZM6.16667 23.4336V20.9435C6.58761 20.9113 7.00254 20.823 7.4 20.6815V23.4336H6.16667ZM22.8167 35.767H9.25C8.90945 35.767 8.63333 35.4909 8.63333 35.1503V20.0097C8.8956 19.8234 9.13708 19.6096 9.35448 19.3723L10.7004 20.4464C11.0868 20.7526 11.5643 20.9206 12.0572 20.9239C12.9708 20.9212 13.7853 20.3476 14.0954 19.4882C14.4056 18.6289 14.1451 17.6671 13.4435 17.0821L12.1861 16.0336H18.5039V16.2926C18.6268 19.4226 20.5478 22.1991 23.4333 23.4177V35.1503C23.4333 35.4909 23.1575 35.767 22.8167 35.767ZM31.2139 20.9287C29.8821 22.2123 28.0818 22.8931 26.2336 22.8112C25.5597 22.7829 24.8943 22.6514 24.2605 22.421C21.7387 21.5126 19.9793 19.216 19.7586 16.5449C19.9486 16.6124 20.1486 16.6479 20.35 16.6503H22.2C22.9314 16.6536 23.595 16.2239 23.8919 15.5558C24.1885 14.8876 24.0617 14.1072 23.5691 13.567C24.2105 12.8699 24.2105 11.7974 23.5691 11.1003C24.1834 10.4343 24.2126 9.41711 23.6375 8.71674L24.9879 6.78363H26.1677L26.4007 7.17266C27.2222 8.52855 28.5823 9.47071 30.1402 9.76278C30.3931 10.1124 30.665 10.4632 30.9746 10.8245C31.1191 10.9985 31.2687 11.1717 31.4181 11.3457L31.634 11.5959C32.5858 12.6787 33.1624 14.0397 33.278 15.4769C33.2946 15.6618 33.3 15.8466 33.3 16.0366C33.306 17.8845 32.5514 19.6535 31.2139 20.9287ZM35.7667 14.8003H34.4367C34.2093 13.311 33.5605 11.9181 32.5668 10.7856L32.3524 10.539C32.2573 10.4288 32.1624 10.3159 32.0667 10.203V7.4003H35.7667V14.8003Z" fill="white"/>
<path d="M27.6955 16.2408H25.8647C25.8829 16.7801 26.025 17.1856 26.291 17.4571C26.5606 17.7286 26.9778 17.8643 27.5425 17.8643C27.925 17.8643 28.2712 17.8075 28.5808 17.6937L28.7776 19.0255C28.3258 19.1319 27.8595 19.1852 27.3785 19.1852C26.4203 19.1852 25.6607 18.9265 25.0996 18.4092C24.5422 17.8882 24.2489 17.1654 24.2197 16.2408H23.2961V15.4043H24.2197V14.7218H23.2961V13.8853H24.2307C24.2926 12.9607 24.6114 12.2435 25.187 11.7335C25.7663 11.2198 26.5333 10.963 27.4878 10.963C27.8704 10.963 28.3003 11.0199 28.7776 11.1336L28.5808 12.4709C28.2384 12.3535 27.9014 12.2948 27.5698 12.2948C26.5387 12.2948 25.974 12.825 25.8756 13.8853H27.6955V14.7218H25.8647V15.4043H27.6955V16.2408Z" fill="white"/>
<path d="M19.1167 27.7505V24.6671H20.35C20.6081 24.6668 20.8384 24.506 20.9279 24.2642C21.0173 24.0221 20.9468 23.7502 20.7511 23.5822L16.4344 19.8822C16.2035 19.6849 15.8635 19.6849 15.6326 19.8822L11.3159 23.5822C11.1201 23.7502 11.0497 24.0221 11.1391 24.2642C11.2285 24.506 11.4589 24.6668 11.7166 24.6671H12.95V27.7505C12.95 28.091 13.2261 28.3671 13.5666 28.3671H18.5C18.8409 28.3671 19.1167 28.091 19.1167 27.7505ZM16.0333 21.1625L18.6852 23.4338H13.3818L16.0333 21.1625ZM17.8833 27.1338H16.65V25.9004H15.4167V27.1338H14.1833V24.6671H17.8833V27.1338Z" fill="white"/>
<path d="M17.8833 29.6004H22.2V30.8337H17.8833V29.6004Z" fill="white"/>
<path d="M19.7333 32.067H22.2V33.3004H19.7333V32.067Z" fill="white"/>
<path d="M9.86667 29.6004H13.5667V30.8337H9.86667V29.6004Z" fill="white"/>
<path d="M9.86667 32.067H13.5667V33.3004H9.86667V32.067Z" fill="white"/>
<path d="M25.9 25.2838H27.1333V26.5171H25.9V25.2838Z" fill="white"/>
<path d="M25.9 27.7504H27.1333V28.9837H25.9V27.7504Z" fill="white"/>
<path d="M25.9 30.217H27.1333V32.6837H25.9V30.217Z" fill="white"/>
</svg>
