<svg width="30" height="30" viewBox="0 0 30 30" fill="none" xmlns="http://www.w3.org/2000/svg">
<path d="M29.797 8.6L25 5.05V0.5C25 0.367392 24.9473 0.240215 24.8536 0.146447C24.7598 0.0526784 24.6326 0 24.5 0H22.5C22.3674 0 22.2402 0.0526784 22.1464 0.146447C22.0527 0.240215 22 0.367392 22 0.5V2.835L18.297 0.1C18.211 0.0364978 18.1069 0.00223255 18 0.00223255C17.8931 0.00223255 17.789 0.0364978 17.703 0.1L6.203 8.6C6.11925 8.66281 6.05732 8.75032 6.02596 8.8502C5.99459 8.95008 5.99537 9.05728 6.02817 9.1567C6.06098 9.25611 6.12416 9.34272 6.20881 9.40431C6.29347 9.46591 6.39531 9.49937 6.5 9.5H9V19.817L7.5 20.65V19.5C7.5 19.3674 7.44732 19.2402 7.35355 19.1464C7.25979 19.0527 7.13261 19 7 19H3C2.86739 19 2.74021 19.0527 2.64645 19.1464C2.55268 19.2402 2.5 19.3674 2.5 19.5V20H0.5C0.367392 20 0.240215 20.0527 0.146447 20.1464C0.0526784 20.2402 0 20.3674 0 20.5V28.5C0 28.6326 0.0526784 28.7598 0.146447 28.8536C0.240215 28.9473 0.367392 29 0.5 29H2.5V29.5C2.5 29.6326 2.55268 29.7598 2.64645 29.8536C2.74021 29.9473 2.86739 30 3 30H7C7.13261 30 7.25979 29.9473 7.35355 29.8536C7.44732 29.7598 7.5 29.6326 7.5 29.5V28.1265C8.26908 28.6947 9.2003 29.0009 10.1565 29H14.9375C15.7213 28.9996 16.4915 28.7949 17.172 28.406L28.847 21.682C29.1507 21.5066 29.4025 21.254 29.5769 20.9498C29.7513 20.6456 29.8421 20.3007 29.84 19.95C29.8398 19.5991 29.748 19.2544 29.5735 18.95C29.3226 18.5186 28.919 18.1971 28.4425 18.0489C27.966 17.9008 27.4512 17.9369 27 18.15V9.5H29.5C29.6047 9.49937 29.7065 9.46591 29.7912 9.40431C29.8758 9.34272 29.939 9.25611 29.9718 9.1567C30.0046 9.05728 30.0054 8.95008 29.974 8.8502C29.9427 8.75032 29.8808 8.66281 29.797 8.6ZM23 1H24V4.313L23 3.574V1ZM1 28V21H2.5V28H1ZM6.5 29H3.5V20H6.5V29ZM28.704 19.445C28.7925 19.5986 28.8394 19.7727 28.84 19.95C28.8414 20.1252 28.7964 20.2977 28.7095 20.4499C28.6227 20.6021 28.4971 20.7286 28.3455 20.8165L16.6745 27.539C16.1453 27.8408 15.5467 27.9997 14.9375 28H10.1565C9.69676 28.0012 9.24134 27.9113 8.81659 27.7353C8.39185 27.5594 8.00621 27.301 7.682 26.975L7.5 26.793V21.793L10.3285 20.222C11.1218 19.7791 12.0569 19.6639 12.934 19.901L19.581 21.682C19.7096 21.7143 19.8306 21.772 19.9367 21.8515C20.0429 21.931 20.1321 22.0309 20.1993 22.1452C20.2665 22.2596 20.3103 22.3862 20.3281 22.5176C20.3459 22.6491 20.3374 22.7827 20.303 22.9108C20.2687 23.039 20.2092 23.159 20.128 23.2639C20.0468 23.3687 19.9456 23.4564 19.8301 23.5218C19.7147 23.5872 19.5875 23.629 19.4558 23.6448C19.3241 23.6605 19.1906 23.6499 19.063 23.6135L14.6715 22.437C14.5436 22.4034 14.4077 22.4219 14.2934 22.4883C14.179 22.5547 14.0957 22.6636 14.0615 22.7914C14.0273 22.9191 14.0451 23.0551 14.111 23.1697C14.1769 23.2844 14.2854 23.3682 14.413 23.403L18.8045 24.5795C18.9744 24.6251 19.1496 24.6483 19.3255 24.6485C19.5955 24.6515 19.8632 24.5989 20.1119 24.494C20.3607 24.3891 20.5852 24.2341 20.7714 24.0386C20.9577 23.8432 21.1017 23.6115 21.1945 23.3579C21.2874 23.1044 21.327 22.8345 21.311 22.565L27.3435 19.0825C27.5723 18.9513 27.8436 18.9158 28.0984 18.9837C28.3532 19.0516 28.5708 19.2174 28.704 19.445ZM24 19.859L21.008 21.586C20.7427 21.1589 20.3253 20.8483 19.84 20.717L13.1925 18.936C12.8035 18.8331 12.4024 18.7826 12 18.786V8.042L18 3.607L24 8.042V19.859ZM26.5 8.5C26.3674 8.5 26.2402 8.55268 26.1464 8.64645C26.0527 8.74021 26 8.86739 26 9V18.7045L25 19.2815V7.79C24.9997 7.71212 24.9811 7.6354 24.9459 7.56596C24.9106 7.49651 24.8597 7.43626 24.797 7.39L18.297 2.585C18.211 2.5215 18.1069 2.48723 18 2.48723C17.8931 2.48723 17.789 2.5215 17.703 2.585L11.203 7.39C11.1403 7.43626 11.0894 7.49651 11.0541 7.56596C11.0189 7.6354 11.0003 7.71212 11 7.79V18.9025C10.6533 18.9854 10.3176 19.1091 10 19.271V9C10 8.86739 9.94732 8.74021 9.85355 8.64645C9.75979 8.55268 9.63261 8.5 9.5 8.5H8.0175L18 1.122L27.9825 8.5H26.5Z" fill="white"/>
<path d="M5 26.5C4.86739 26.5 4.74021 26.5527 4.64645 26.6464C4.55268 26.7402 4.5 26.8674 4.5 27V27.5C4.5 27.6326 4.55268 27.7598 4.64645 27.8536C4.74021 27.9473 4.86739 28 5 28C5.13261 28 5.25979 27.9473 5.35355 27.8536C5.44732 27.7598 5.5 27.6326 5.5 27.5V27C5.5 26.8674 5.44732 26.7402 5.35355 26.6464C5.25979 26.5527 5.13261 26.5 5 26.5Z" fill="white"/>
<path d="M20.1113 14.4727H17.8213C17.8441 15.1426 18.0218 15.6462 18.3545 15.9834C18.6917 16.3206 19.2135 16.4893 19.9199 16.4893C20.3984 16.4893 20.8314 16.4186 21.2188 16.2773L21.4648 17.9316C20.8997 18.0638 20.3164 18.1299 19.7148 18.1299C18.5163 18.1299 17.5661 17.8086 16.8643 17.166C16.167 16.5189 15.8001 15.6211 15.7637 14.4727H14.6084V13.4336H15.7637V12.5859H14.6084V11.5469H15.7773C15.8548 10.3984 16.2536 9.50749 16.9736 8.87402C17.6982 8.236 18.6576 7.91699 19.8516 7.91699C20.3301 7.91699 20.8678 7.98763 21.4648 8.12891L21.2188 9.79004C20.7904 9.64421 20.3688 9.57129 19.9541 9.57129C18.6644 9.57129 17.958 10.2298 17.835 11.5469H20.1113V12.5859H17.8213V13.4336H20.1113V14.4727Z" fill="white"/>
</svg>
