<svg width="32" height="32" viewBox="0 0 32 32" fill="none" xmlns="http://www.w3.org/2000/svg">
<path d="M31.7837 9.17339L26.6668 5.3867V0.533337C26.6668 0.391887 26.6106 0.256231 26.5106 0.156211C26.4106 0.0561906 26.2749 0 26.1335 0H24.0001C23.8587 0 23.723 0.0561906 23.623 0.156211C23.523 0.256231 23.4668 0.391887 23.4668 0.533337V3.02402L19.5169 0.106667C19.4252 0.0389312 19.3142 0.0023814 19.2001 0.0023814C19.0861 0.0023814 18.9751 0.0389312 18.8833 0.106667L6.61657 9.17339C6.52724 9.24039 6.46119 9.33374 6.42773 9.44027C6.39427 9.54681 6.3951 9.66116 6.43009 9.7672C6.46509 9.87325 6.53248 9.96563 6.62278 10.0313C6.71307 10.097 6.82171 10.1327 6.93338 10.1334H9.60006V21.1383L8.00005 22.0268V20.8001C8.00005 20.6587 7.94386 20.523 7.84384 20.423C7.74382 20.323 7.60816 20.2668 7.46671 20.2668H3.20002C3.05857 20.2668 2.92291 20.323 2.82289 20.423C2.72287 20.523 2.66668 20.6587 2.66668 20.8001V21.3335H0.533337C0.391887 21.3335 0.256231 21.3897 0.156211 21.4897C0.0561906 21.5897 0 21.7254 0 21.8668V30.4002C0 30.5416 0.0561906 30.6773 0.156211 30.7773C0.256231 30.8773 0.391887 30.9335 0.533337 30.9335H2.66668V31.4669C2.66668 31.6083 2.72287 31.744 2.82289 31.844C2.92291 31.944 3.05857 32.0002 3.20002 32.0002H7.46671C7.60816 32.0002 7.74382 31.944 7.84384 31.844C7.94386 31.744 8.00005 31.6083 8.00005 31.4669V30.0018C8.8204 30.6079 9.81371 30.9345 10.8337 30.9335H15.9334C16.7695 30.9331 17.591 30.7147 18.3169 30.2999L30.7703 23.1276C31.0942 22.9405 31.3628 22.6711 31.5489 22.3466C31.7349 22.0221 31.8317 21.6542 31.8295 21.2801C31.8294 20.9059 31.7314 20.5382 31.5453 20.2135C31.2777 19.7533 30.8472 19.4103 30.3389 19.2523C29.8306 19.0943 29.2815 19.1328 28.8002 19.3601V10.1334H31.4669C31.5785 10.1327 31.6872 10.097 31.7775 10.0313C31.8678 9.96563 31.9352 9.87325 31.9701 9.7672C32.0051 9.66116 32.006 9.54681 31.9725 9.44027C31.9391 9.33374 31.873 9.24039 31.7837 9.17339ZM24.5335 1.06667H25.6002V4.60056L24.5335 3.81229V1.06667ZM1.06667 29.8669V22.4001H2.66668V29.8669H1.06667ZM6.93338 30.9335H3.73336V21.3335H6.93338V30.9335ZM30.6178 20.7415C30.7122 20.9053 30.7622 21.091 30.7629 21.2801C30.7644 21.467 30.7163 21.651 30.6237 21.8134C30.5311 21.9757 30.3971 22.1106 30.2354 22.2044L17.7862 29.3751C17.2218 29.697 16.5832 29.8665 15.9334 29.8669H10.8337C10.3433 29.8682 9.85749 29.7722 9.40442 29.5845C8.95136 29.3969 8.54001 29.1212 8.19418 28.7735L8.00005 28.5794V23.246L11.0171 21.5703C11.8634 21.0978 12.8608 20.9749 13.7964 21.2279L20.8865 23.1276C21.0237 23.1621 21.1527 23.2236 21.266 23.3084C21.3792 23.3932 21.4744 23.4997 21.5461 23.6217C21.6178 23.7437 21.6645 23.8787 21.6834 24.0189C21.7024 24.1591 21.6933 24.3017 21.6567 24.4384C21.62 24.575 21.5566 24.703 21.47 24.8149C21.3834 24.9268 21.2754 25.0204 21.1523 25.0901C21.0292 25.1599 20.8935 25.2044 20.753 25.2212C20.6125 25.238 20.4701 25.2267 20.334 25.1879L15.6497 23.9329C15.5133 23.8971 15.3683 23.9168 15.2463 23.9876C15.1244 24.0585 15.0355 24.1747 14.999 24.3109C14.9626 24.4472 14.9816 24.5923 15.0518 24.7145C15.1221 24.8368 15.2379 24.9263 15.374 24.9634L20.0583 26.2183C20.2395 26.2669 20.4263 26.2917 20.614 26.2919C20.902 26.2951 21.1875 26.239 21.4528 26.1271C21.7182 26.0152 21.9577 25.8498 22.1563 25.6413C22.355 25.4329 22.5086 25.1857 22.6076 24.9153C22.7067 24.6449 22.7489 24.357 22.7319 24.0695L29.1666 20.3548C29.4106 20.2149 29.7 20.177 29.9718 20.2494C30.2436 20.3219 30.4757 20.4987 30.6178 20.7415ZM25.6002 21.1831L22.4087 23.0252C22.1257 22.5696 21.6805 22.2384 21.1628 22.0983L14.0721 20.1985C13.6571 20.0887 13.2293 20.0349 12.8001 20.0385V8.57819L19.2001 3.84749L25.6002 8.57819V21.1831ZM28.2668 9.06672C28.1254 9.06672 27.9897 9.12291 27.8897 9.22293C27.7897 9.32295 27.7335 9.45861 27.7335 9.60006V19.9516L26.6668 20.5671V8.30938C26.6665 8.22632 26.6467 8.14448 26.6091 8.07041C26.5715 7.99633 26.5171 7.93206 26.4503 7.88272L19.5169 2.75735C19.4252 2.68961 19.3142 2.65306 19.2001 2.65306C19.0861 2.65306 18.9751 2.68961 18.8833 2.75735L11.9499 7.88272C11.8831 7.93206 11.8287 7.99633 11.7911 8.07041C11.7535 8.14448 11.7338 8.22632 11.7334 8.30938V20.1628C11.3636 20.2512 11.0055 20.3831 10.6667 20.5559V9.60006C10.6667 9.45861 10.6105 9.32295 10.5105 9.22293C10.4105 9.12291 10.2748 9.06672 10.1334 9.06672H8.55205L19.2001 1.19681L29.8482 9.06672H28.2668Z" fill="#EF855B"/>
<path d="M5.33339 28.2668C5.19194 28.2668 5.05628 28.323 4.95626 28.4231C4.85624 28.5231 4.80005 28.6587 4.80005 28.8002V29.3335C4.80005 29.475 4.85624 29.6106 4.95626 29.7106C5.05628 29.8107 5.19194 29.8669 5.33339 29.8669C5.47484 29.8669 5.61049 29.8107 5.71051 29.7106C5.81053 29.6106 5.86672 29.475 5.86672 29.3335V28.8002C5.86672 28.6587 5.81053 28.5231 5.71051 28.4231C5.61049 28.323 5.47484 28.2668 5.33339 28.2668Z" fill="#EF855B"/>
<path d="M21.4522 15.4376H19.0095C19.0338 16.1522 19.2234 16.6893 19.5783 17.0491C19.938 17.4088 20.4946 17.5886 21.2481 17.5886C21.7585 17.5886 22.2203 17.5133 22.6335 17.3626L22.896 19.1272C22.2932 19.2682 21.671 19.3387 21.0293 19.3387C19.7508 19.3387 18.7373 18.9959 17.9887 18.3105C17.2449 17.6202 16.8536 16.6626 16.8147 15.4376H15.5824V14.3293H16.8147V13.4251H15.5824V12.3167H16.8293C16.9119 11.0917 17.3373 10.1414 18.1053 9.46568C18.8783 8.78512 19.9015 8.44484 21.1751 8.44484C21.6856 8.44484 22.2592 8.52019 22.896 8.67088L22.6335 10.4428C22.1765 10.2872 21.7269 10.2094 21.2845 10.2094C19.9088 10.2094 19.1553 10.9119 19.0241 12.3167H21.4522V13.4251H19.0095V14.3293H21.4522V15.4376Z" fill="#EF855B"/>
</svg>
