<svg width="27" height="27" viewBox="0 0 27 27" fill="none" xmlns="http://www.w3.org/2000/svg">
<path d="M7.25777 27H1.93529C1.43872 27.0153 0.956323 26.8333 0.593634 26.4938C0.230945 26.1542 0.0174996 25.6849 0 25.1884C0.0174996 24.6919 0.230945 24.2226 0.593634 23.883C0.956323 23.5435 1.43872 23.3615 1.93529 23.3768V16.1303C1.93961 16.0063 1.99289 15.889 2.08348 15.8041C2.17407 15.7192 2.29459 15.6737 2.41868 15.6774C2.54285 15.6737 2.66346 15.7192 2.75419 15.804C2.84492 15.8889 2.89839 16.0062 2.90294 16.1303V23.6032C2.98834 23.644 3.07071 23.6909 3.14942 23.7435C3.36076 23.353 3.67507 23.028 4.05818 22.8036C4.4413 22.5793 4.87857 22.4642 5.32248 22.471C5.87657 22.4564 6.4183 22.6361 6.85372 22.9791C7.28914 23.3221 7.59078 23.8067 7.70632 24.3488C7.99036 24.4276 8.24139 24.596 8.42215 24.8288C8.6029 25.0617 8.70374 25.3466 8.70968 25.6413C8.6965 26.0137 8.53633 26.3658 8.26424 26.6204C7.99214 26.875 7.63026 27.0115 7.25777 27ZM1.93529 24.2826C1.81161 24.2749 1.68767 24.2927 1.57111 24.3347C1.45455 24.3768 1.34784 24.4422 1.25754 24.5271C1.16725 24.612 1.09529 24.7144 1.0461 24.8281C0.996915 24.9419 0.971539 25.0645 0.971539 25.1884C0.971539 25.3123 0.996915 25.4349 1.0461 25.5487C1.09529 25.6624 1.16725 25.7648 1.25754 25.8497C1.34784 25.9346 1.45455 26 1.57111 26.0421C1.68767 26.0841 1.81161 26.1019 1.93529 26.0942H7.25777C7.31961 26.098 7.38158 26.0892 7.43986 26.0682C7.49814 26.0471 7.5515 26.0144 7.59665 25.972C7.64179 25.9295 7.67777 25.8783 7.70237 25.8214C7.72696 25.7646 7.73965 25.7033 7.73965 25.6413C7.73965 25.5793 7.72696 25.518 7.70237 25.4612C7.67777 25.4043 7.64179 25.3531 7.59665 25.3106C7.5515 25.2682 7.49814 25.2355 7.43986 25.2145C7.38158 25.1934 7.31961 25.1846 7.25777 25.1884C7.13384 25.1922 7.01344 25.1467 6.92288 25.0621C6.83231 24.9774 6.77893 24.8603 6.77439 24.7364C6.76143 24.3638 6.60137 24.0115 6.32924 23.7567C6.05712 23.5019 5.69511 23.3653 5.32248 23.3768C4.95 23.3653 4.58812 23.5018 4.31602 23.7564C4.04392 24.011 3.88376 24.3631 3.87058 24.7355C3.86773 24.8447 3.82626 24.9493 3.75354 25.0308C3.68083 25.1123 3.58157 25.1653 3.47342 25.1806C3.44463 25.1853 3.4155 25.1876 3.38632 25.1875C3.29027 25.1888 3.19601 25.1615 3.11552 25.1091C3.03503 25.0567 2.97194 24.9815 2.93429 24.8931C2.84661 24.7041 2.70496 24.5453 2.52719 24.4367C2.34942 24.328 2.14347 24.2744 1.93529 24.2826Z" fill="#EF855B"/>
<path d="M26.5497 3.58316H18.0003C17.8814 3.58316 17.7675 3.63037 17.6834 3.71441C17.5994 3.79845 17.5522 3.91243 17.5522 4.03127C17.5522 4.15012 17.5994 4.2641 17.6834 4.34814C17.7675 4.43218 17.8814 4.47939 18.0003 4.47939H26.1003V14.1471L13.8179 1.9231C13.7328 1.83895 13.6179 1.79176 13.4983 1.79176C13.3786 1.79176 13.2637 1.83895 13.1786 1.9231L0.89971 14.148V4.47939H5.85029C5.96933 4.47962 6.08361 4.43261 6.16803 4.34868C6.25245 4.26475 6.30012 4.15075 6.30058 4.03171V2.23926C6.30012 2.12022 6.25245 2.00622 6.16803 1.92229C6.08361 1.83836 5.96933 1.79135 5.85029 1.79158H5.4V0.896227H8.1V1.79158H7.64971C7.53067 1.79135 7.41639 1.83836 7.33197 1.92229C7.24755 2.00622 7.19988 2.12022 7.19942 2.23926V4.03171C7.19988 4.15075 7.24755 4.26475 7.33197 4.34868C7.41639 4.43261 7.53067 4.47962 7.64971 4.47939H8.99971C9.11856 4.47939 9.23254 4.43218 9.31657 4.34814C9.40061 4.2641 9.44782 4.15012 9.44782 4.03127C9.44782 3.91243 9.40061 3.79845 9.31657 3.71441C9.23254 3.63037 9.11856 3.58316 8.99971 3.58316H8.1V2.68781H8.55029C8.66933 2.68804 8.7836 2.64103 8.86803 2.5571C8.95245 2.47317 9.00012 2.35917 9.00058 2.24013V0.447678C9.00012 0.328636 8.95245 0.21464 8.86803 0.130709C8.7836 0.0467775 8.66933 -0.000230746 8.55029 8.51721e-07H4.94971C4.83067 -0.000230746 4.71639 0.0467775 4.63197 0.130709C4.54755 0.21464 4.49988 0.328636 4.49942 0.447678V2.23926C4.49988 2.3583 4.54755 2.4723 4.63197 2.55623C4.71639 2.64016 4.83067 2.68717 4.94971 2.68694H5.4V3.58316H0.45029C0.391272 3.58305 0.332808 3.59456 0.278239 3.61704C0.223669 3.63952 0.174061 3.67253 0.132247 3.71418C0.0904342 3.75583 0.0572342 3.80531 0.0345431 3.85979C0.011852 3.91427 0.000114266 3.97269 0 4.03171L0 15.2297C9.91773e-05 15.3185 0.0265631 15.4052 0.0760318 15.4788C0.1255 15.5525 0.195742 15.6098 0.277839 15.6435C0.360086 15.6773 0.450517 15.6862 0.537764 15.6688C0.625011 15.6515 0.705181 15.6087 0.768194 15.5459L13.5 2.87419L26.2335 15.5485C26.2967 15.6107 26.3767 15.653 26.4637 15.6699C26.5507 15.6868 26.6408 15.6777 26.7226 15.6437C26.8045 15.6096 26.8744 15.5522 26.9238 15.4786C26.9731 15.4049 26.9996 15.3184 27 15.2297V4.03171C26.9999 3.97269 26.9881 3.91427 26.9655 3.85979C26.9428 3.80531 26.9096 3.75583 26.8678 3.71418C26.8259 3.67253 26.7763 3.63952 26.7218 3.61704C26.6672 3.59456 26.6087 3.58305 26.5497 3.58316Z" fill="#EF855B"/>
<path d="M25.1622 27H10.9106C10.8511 27 10.7922 26.9883 10.7373 26.9655C10.6823 26.9428 10.6324 26.9094 10.5904 26.8674C10.5483 26.8253 10.5149 26.7754 10.4922 26.7204C10.4694 26.6655 10.4577 26.6066 10.4577 26.5471C10.4577 26.4876 10.4694 26.4287 10.4922 26.3738C10.5149 26.3188 10.5483 26.2689 10.5904 26.2269C10.6324 26.1848 10.6823 26.1514 10.7373 26.1287C10.7922 26.1059 10.8511 26.0942 10.9106 26.0942H18.8129C18.7572 25.9496 18.7277 25.7962 18.7258 25.6413C18.7268 25.3526 18.8197 25.0717 18.991 24.8393C19.1623 24.607 19.4032 24.4352 19.6786 24.3488C19.7686 23.875 20.0047 23.4412 20.3538 23.1084C20.7029 22.7756 21.1475 22.5605 21.6251 22.4932C22.1027 22.426 22.5893 22.51 23.0167 22.7334C23.4442 22.9569 23.7909 23.3086 24.0082 23.7391C24.0827 23.6866 24.161 23.6398 24.2425 23.5989V16.1303C24.2425 16.0085 24.2909 15.8916 24.3771 15.8055C24.4632 15.7193 24.5801 15.6709 24.7019 15.6709C24.8238 15.6709 24.9407 15.7193 25.0268 15.8055C25.113 15.8916 25.1614 16.0085 25.1614 16.1303V23.3768C25.6418 23.3768 26.1026 23.5677 26.4424 23.9074C26.7821 24.2471 26.973 24.7079 26.973 25.1884C26.973 25.6689 26.7821 26.1297 26.4424 26.4694C26.1026 26.8091 25.6418 27 25.1614 27H25.1622ZM21.9397 23.3768C21.5774 23.3756 21.2295 23.5179 20.9718 23.7725C20.7141 24.027 20.5676 24.3733 20.5644 24.7355C20.5633 24.8562 20.5143 24.9716 20.4283 25.0563C20.3423 25.141 20.2262 25.1882 20.1054 25.1875C20.0459 25.1875 19.987 25.1992 19.9321 25.222C19.8771 25.2448 19.8272 25.2781 19.7852 25.3202C19.7431 25.3622 19.7097 25.4122 19.687 25.4671C19.6642 25.5221 19.6525 25.581 19.6525 25.6404C19.6525 25.6999 19.6642 25.7588 19.687 25.8138C19.7097 25.8687 19.7431 25.9186 19.7852 25.9607C19.8272 26.0027 19.8771 26.0361 19.9321 26.0589C19.987 26.0816 20.0459 26.0933 20.1054 26.0933H25.157C25.3973 26.0933 25.6277 25.9979 25.7975 25.828C25.9674 25.6582 26.0628 25.4278 26.0628 25.1875C26.0628 24.9473 25.9674 24.7169 25.7975 24.547C25.6277 24.3772 25.3973 24.2817 25.157 24.2817C24.956 24.2761 24.758 24.3313 24.589 24.4401C24.4199 24.5488 24.2876 24.7062 24.2094 24.8914C24.1758 24.9782 24.1167 25.0528 24.0399 25.1053C23.9631 25.1578 23.8722 25.1859 23.7792 25.1858C23.7517 25.1859 23.7243 25.1835 23.6973 25.1788C23.592 25.161 23.4963 25.1066 23.4272 25.0252C23.358 24.9438 23.3198 24.8406 23.3193 24.7338C23.3156 24.3717 23.1688 24.0258 22.911 23.7715C22.6532 23.5173 22.3052 23.3754 21.9432 23.3768H21.9397Z" fill="#EF855B"/>
<path d="M13.0645 10.4516C12.72 10.4516 12.3832 10.3495 12.0967 10.158C11.8103 9.96664 11.587 9.69459 11.4552 9.37629C11.3233 9.05799 11.2888 8.70775 11.356 8.36984C11.4233 8.03194 11.5892 7.72156 11.8328 7.47794C12.0764 7.23433 12.3868 7.06843 12.7247 7.00121C13.0626 6.934 13.4128 6.9685 13.7311 7.10034C14.0494 7.23218 14.3215 7.45545 14.5129 7.74191C14.7043 8.02837 14.8064 8.36516 14.8064 8.70968C14.8064 9.17167 14.6229 9.61474 14.2962 9.94141C13.9696 10.2681 13.5265 10.4516 13.0645 10.4516ZM13.0645 7.83871C12.8922 7.83871 12.7239 7.88979 12.5806 7.9855C12.4374 8.0812 12.3258 8.21723 12.2598 8.37637C12.1939 8.53552 12.1767 8.71065 12.2103 8.8796C12.2439 9.04855 12.3268 9.20374 12.4486 9.32555C12.5704 9.44735 12.7256 9.5303 12.8946 9.56391C13.0635 9.59752 13.2387 9.58027 13.3978 9.51435C13.557 9.44843 13.693 9.33679 13.7887 9.19356C13.8844 9.05033 13.9355 8.88194 13.9355 8.70968C13.9355 8.47868 13.8437 8.25715 13.6804 8.09381C13.517 7.93047 13.2955 7.83871 13.0645 7.83871Z" fill="#EF855B"/>
<path d="M23.0807 21.7742H17.8549C17.7394 21.7742 17.6286 21.7283 17.5469 21.6467C17.4653 21.565 17.4194 21.4542 17.4194 21.3387C17.4194 21.2232 17.4653 21.1125 17.5469 21.0308C17.6286 20.9491 17.7394 20.9032 17.8549 20.9032H18.2903V16.1129C18.2903 15.9974 18.3362 15.8866 18.4179 15.805C18.4996 15.7233 18.6103 15.6774 18.7258 15.6774H22.2097C22.3252 15.6774 22.436 15.7233 22.5176 15.805C22.5993 15.8866 22.6452 15.9974 22.6452 16.1129V20.9032H23.0807C23.1962 20.9032 23.3069 20.9491 23.3886 21.0308C23.4703 21.1125 23.5161 21.2232 23.5161 21.3387C23.5161 21.4542 23.4703 21.565 23.3886 21.6467C23.3069 21.7283 23.1962 21.7742 23.0807 21.7742ZM19.1613 19.1613V20.9032H21.7742V19.1613H19.1613ZM19.1613 16.5484V18.2903H21.7742V16.5484H19.1613Z" fill="#EF855B"/>
<path d="M10.0161 27C9.90061 27 9.78985 26.9541 9.70818 26.8725C9.62651 26.7908 9.58063 26.68 9.58063 26.5645V24.8226C9.58063 24.7071 9.62651 24.5963 9.70818 24.5147C9.78985 24.433 9.90061 24.3871 10.0161 24.3871H11.3226V16.1129C11.3226 15.9974 11.3684 15.8866 11.4501 15.805C11.5318 15.7233 11.6425 15.6774 11.758 15.6774H16.1129C16.2284 15.6774 16.3392 15.7233 16.4208 15.805C16.5025 15.8866 16.5484 15.9974 16.5484 16.1129V24.3871H17.8548C17.9703 24.3871 18.0811 24.433 18.1628 24.5147C18.2444 24.5963 18.2903 24.7071 18.2903 24.8226C18.2903 24.9381 18.2444 25.0489 18.1628 25.1305C18.0811 25.2122 17.9703 25.2581 17.8548 25.2581H10.4516V26.5645C10.4516 26.68 10.4057 26.7908 10.324 26.8725C10.2424 26.9541 10.1316 27 10.0161 27ZM12.1935 16.5484V24.3871H15.6774V20.9032H15.2419C15.1264 20.9032 15.0157 20.8574 14.934 20.7757C14.8523 20.694 14.8064 20.5832 14.8064 20.4678C14.8064 20.3523 14.8523 20.2415 14.934 20.1598C15.0157 20.0781 15.1264 20.0323 15.2419 20.0323H15.6774V16.5484H12.1935Z" fill="#EF855B"/>
<path d="M9.14518 21.7742H3.91937C3.80387 21.7742 3.69311 21.7283 3.61144 21.6467C3.52977 21.565 3.48389 21.4542 3.48389 21.3387C3.48389 21.2232 3.52977 21.1125 3.61144 21.0308C3.69311 20.9491 3.80387 20.9032 3.91937 20.9032H4.35485V16.1129C4.35485 15.9974 4.40074 15.8866 4.4824 15.805C4.56407 15.7233 4.67484 15.6774 4.79034 15.6774H8.27421C8.38971 15.6774 8.50047 15.7233 8.58214 15.805C8.66381 15.8866 8.70969 15.9974 8.70969 16.1129V20.9032H9.14518C9.26067 20.9032 9.37144 20.9491 9.45311 21.0308C9.53478 21.1125 9.58066 21.2232 9.58066 21.3387C9.58066 21.4542 9.53478 21.565 9.45311 21.6467C9.37144 21.7283 9.26067 21.7742 9.14518 21.7742ZM5.22582 19.1613V20.9032H7.83873V19.1613H5.22582ZM5.22582 16.5484V18.2903H7.83873V16.5484H5.22582Z" fill="#EF855B"/>
</svg>
