<svg width="32" height="32" viewBox="0 0 32 32" fill="none" xmlns="http://www.w3.org/2000/svg">
<path d="M30.4516 21.6774H29.5768C31.0395 20.6493 32 18.9523 32 17.0323C32 13.9019 29.4529 11.3548 26.3226 11.3548C23.1923 11.3548 20.6452 13.9019 20.6452 17.0323C20.6452 18.9523 21.6057 20.6493 23.0684 21.6774H22.1935C21.3399 21.6774 20.6452 22.3721 20.6452 23.2258V24.2581C20.6452 24.5032 20.7076 24.7324 20.8098 24.9388C20.6034 24.8366 20.3742 24.7742 20.129 24.7742H19.1138L19.6021 10.0413C20.2219 9.68464 20.6452 9.02348 20.6452 8.25806C20.6452 7.11948 19.7192 6.19355 18.5806 6.19355H11.2975C11.969 5.53703 12.3871 4.62348 12.3871 3.6129C12.3871 1.62116 10.7659 0 8.77419 0C6.78245 0 5.16129 1.62116 5.16129 3.6129C5.16129 4.78452 5.72439 5.82452 6.592 6.48516C5.4369 6.86142 4.42787 7.58968 3.7409 8.59974C2.62865 10.2359 2.06452 12.0315 2.06452 13.9355C2.06452 16.3427 4.34684 17.8916 5.16129 18.368V26.8387C5.16129 27.2165 5.27071 27.5659 5.44826 27.871H1.54839C0.69471 27.871 0 28.5657 0 29.4194V30.4516C0 31.3053 0.69471 32 1.54839 32H9.80645C10.2044 32 10.5641 31.8446 10.8387 31.5974C11.1133 31.8452 11.473 32 11.871 32H20.129C20.527 32 20.8867 31.8446 21.1613 31.5974C21.4359 31.8452 21.7956 32 22.1935 32H30.4516C31.3053 32 32 31.3053 32 30.4516V29.4194C32 29.0214 31.8446 28.6617 31.5974 28.3871C31.8452 28.1125 32 27.7528 32 27.3548V26.3226C32 25.9246 31.8446 25.5649 31.5974 25.2903C31.8452 25.0157 32 24.656 32 24.2581V23.2258C32 22.3721 31.3053 21.6774 30.4516 21.6774ZM21.6774 17.0323C21.6774 14.4707 23.761 12.3871 26.3226 12.3871C28.8841 12.3871 30.9677 14.4707 30.9677 17.0323C30.9677 19.5938 28.8841 21.6774 26.3226 21.6774C23.761 21.6774 21.6774 19.5938 21.6774 17.0323ZM21.6774 23.2258C21.6774 22.9409 21.9086 22.7097 22.1935 22.7097H22.7097V23.7419H23.7419V22.7097H24.7742V23.7419H25.8064V22.7097H26.8387V23.7419H27.871V22.7097H28.9032V23.7419H29.9355V22.7097H30.4516C30.7365 22.7097 30.9677 22.9409 30.9677 23.2258V24.2581C30.9677 24.543 30.7365 24.7742 30.4516 24.7742H22.1935C21.9086 24.7742 21.6774 24.543 21.6774 24.2581V23.2258ZM30.9677 26.3226V27.3548C30.9677 27.6397 30.7365 27.871 30.4516 27.871H22.1935C21.9086 27.871 21.6774 27.6397 21.6774 27.3548V26.3226C21.6774 26.0377 21.9086 25.8064 22.1935 25.8064H22.7097V26.8387H23.7419V25.8064H24.7742V26.8387H25.8064V25.8064H26.8387V26.8387H27.871V25.8064H28.9032V26.8387H29.9355V25.8064H30.4516C30.7365 25.8064 30.9677 26.0377 30.9677 26.3226ZM20.6452 26.3226V27.3548C20.6452 27.6397 20.4139 27.871 20.129 27.871H11.871C11.5861 27.871 11.3548 27.6397 11.3548 27.3548V26.3226C11.3548 26.0377 11.5861 25.8064 11.871 25.8064H12.3871V26.8387H13.4194V25.8064H14.4516V26.8387H15.4839V25.8064H16.5161V26.8387H17.5484V25.8064H18.5806V26.8387H19.6129V25.8064H20.129C20.4139 25.8064 20.6452 26.0377 20.6452 26.3226ZM9.00336 27.871C9.1809 27.5659 9.29032 27.2165 9.29032 26.8387V17.6929L11.3548 19.3445V23.7419C11.3548 24.1285 11.4684 24.4867 11.6537 24.7964C10.9032 24.9027 10.3226 25.5432 10.3226 26.3226V27.3548C10.3226 27.6 10.385 27.8292 10.4872 28.0356C10.2808 27.9334 10.0516 27.871 9.80645 27.871H9.00336ZM14.271 15.9886L12.9032 15.1334V10.3226H16.5332L17.0147 24.7742H15.1964C15.3745 24.4692 15.4839 24.1197 15.4839 23.7419V18.1765C15.4839 17.2805 15.0302 16.4625 14.271 15.9886ZM18.0475 24.7742L17.5659 10.3226H18.561L18.0821 24.7742H18.0475ZM6.19355 3.6129C6.19355 2.18994 7.35123 1.03226 8.77419 1.03226C10.1972 1.03226 11.3548 2.18994 11.3548 3.6129C11.3548 5.03587 10.1972 6.19355 8.77419 6.19355C7.35123 6.19355 6.19355 5.03587 6.19355 3.6129ZM6.19355 26.8387V10.3226H5.16129V17.135C4.32826 16.5419 3.09677 15.4173 3.09677 13.9355C3.09677 12.2421 3.60103 10.6421 4.59458 9.18039C5.4271 7.95665 6.84284 7.22581 8.38142 7.22581H18.5806C19.1499 7.22581 19.6129 7.68877 19.6129 8.25806C19.6129 8.82735 19.1499 9.29032 18.5806 9.29032H11.871V14.4883L11.1123 14.0139L10.5646 14.8888L13.7234 16.863C14.1791 17.1479 14.4511 17.6387 14.4511 18.176V23.7419C14.4511 24.3112 13.9881 24.7742 13.4188 24.7742C12.8495 24.7742 12.3866 24.3112 12.3866 23.7419V19.3445C12.3866 19.0292 12.2457 18.735 11.9995 18.5383L9.47148 16.5161H8.25806V26.8387C8.25806 27.408 7.7951 27.871 7.22581 27.871C6.65652 27.871 6.19355 27.408 6.19355 26.8387ZM9.80645 30.9677H1.54839C1.26348 30.9677 1.03226 30.7365 1.03226 30.4516V29.4194C1.03226 29.1345 1.26348 28.9032 1.54839 28.9032H2.06452V29.9355H3.09677V28.9032H4.12903V29.9355H5.16129V28.9032H6.19355V29.9355H7.22581V28.9032H8.25806V29.9355H9.29032V28.9032H9.80645C10.0914 28.9032 10.3226 29.1345 10.3226 29.4194V30.4516C10.3226 30.7365 10.0914 30.9677 9.80645 30.9677ZM20.129 30.9677H11.871C11.5861 30.9677 11.3548 30.7365 11.3548 30.4516V29.4194C11.3548 29.1345 11.5861 28.9032 11.871 28.9032H12.3871V29.9355H13.4194V28.9032H14.4516V29.9355H15.4839V28.9032H16.5161V29.9355H17.5484V28.9032H18.5806V29.9355H19.6129V28.9032H20.129C20.4139 28.9032 20.6452 29.1345 20.6452 29.4194V30.4516C20.6452 30.7365 20.4139 30.9677 20.129 30.9677ZM30.9677 30.4516C30.9677 30.7365 30.7365 30.9677 30.4516 30.9677H22.1935C21.9086 30.9677 21.6774 30.7365 21.6774 30.4516V29.4194C21.6774 29.1345 21.9086 28.9032 22.1935 28.9032H22.7097V29.9355H23.7419V28.9032H24.7742V29.9355H25.8064V28.9032H26.8387V29.9355H27.871V28.9032H28.9032V29.9355H29.9355V28.9032H30.4516C30.7365 28.9032 30.9677 29.1345 30.9677 29.4194V30.4516Z" fill="white"/>
<path d="M26.8256 17.9768H25.6643C25.6724 18.37 25.7671 18.6724 25.9486 18.8841C26.13 19.0958 26.3871 19.2016 26.7197 19.2016C26.9536 19.2016 27.1734 19.1673 27.379 19.0988L27.4395 19.5827C27.1976 19.6432 26.9556 19.6734 26.7137 19.6734C26.2137 19.6734 25.8195 19.5262 25.5312 19.2319C25.2449 18.9355 25.0958 18.5171 25.0837 17.9768H24.5453V17.6018H25.0837V17.1875H24.5453V16.8095H25.0837C25.1038 16.2813 25.257 15.873 25.5433 15.5847C25.8316 15.2944 26.2208 15.1492 26.7107 15.1492C26.9244 15.1492 27.1673 15.1805 27.4395 15.243L27.379 15.7329C27.1593 15.6623 26.9385 15.627 26.7167 15.627C26.3861 15.627 26.131 15.7298 25.9516 15.9355C25.7742 16.1391 25.6794 16.4305 25.6673 16.8095H26.8256V17.1875H25.6643V17.6018H26.8256V17.9768Z" fill="white"/>
</svg>
