<svg width="31" height="30" viewBox="0 0 31 30" fill="none" xmlns="http://www.w3.org/2000/svg">
<path d="M29.95 7.1099C29.8467 6.72587 29.5947 6.39847 29.25 6.19999C28.905 6.00052 28.4949 5.94657 28.1101 6.04984C27.7258 6.15336 27.3984 6.40506 27.2 6.74979L26.95 7.18485C26.7124 7.04837 26.4089 7.1287 26.27 7.36503L25 9.52982L24.565 9.27982C24.4497 9.21317 24.3125 9.1951 24.1841 9.22977C24.0554 9.26468 23.9461 9.34916 23.8799 9.46488C23.7444 9.70389 23.8269 10.0076 24.065 10.1448L24.5 10.3948L20.25 17.7598L19.2 20.565L18.7 21.4998C18.4072 22.0091 18.4385 22.6421 18.78 23.1199L17.655 24.4998L17.3401 23.71C17.198 23.3579 16.8692 23.1167 16.491 23.0872C16.1126 23.0574 15.75 23.2444 15.555 23.5699L15.375 23.8748L15.2051 21.8748C15.166 21.4016 14.7996 21.0213 14.3284 20.9641C13.857 20.9073 13.4107 21.1897 13.26 21.6399L12.0301 25.3299C11.9441 25.5909 12.0847 25.8721 12.345 25.96C12.3938 25.9827 12.4463 25.9964 12.5 25.9998C12.7149 26.0005 12.9063 25.8636 12.9751 25.6599L14.2 21.97L14.375 23.9998C14.4112 24.4329 14.7224 24.793 15.1458 24.8911C15.5691 24.9893 16.0071 24.8028 16.23 24.43L16.4151 24.1248L16.7251 24.9099C16.8567 25.2408 17.1543 25.4768 17.5066 25.5293C17.8589 25.5818 18.2124 25.4429 18.4351 25.1648L19.6001 23.69C19.729 23.7237 19.8618 23.7405 19.9951 23.74C20.531 23.7442 21.0286 23.4619 21.3001 22.9998L21.8001 22.1648L23.7051 19.8499L28 12.3948L28.4351 12.6448C28.551 12.7112 28.6355 12.8208 28.6699 12.95C28.7046 13.0782 28.6865 13.2149 28.6201 13.3299L26.6201 16.795C26.5447 16.9087 26.5191 17.0484 26.5493 17.1817C26.5796 17.3147 26.6629 17.4297 26.78 17.4998C26.8953 17.5667 27.0325 17.5848 27.1609 17.5501C27.2896 17.5152 27.3989 17.4307 27.4651 17.315L29.4651 13.8499C29.6646 13.5049 29.7185 13.0948 29.615 12.71C29.5115 12.3257 29.2598 11.9983 28.915 11.7998L28.48 11.5498L29.73 9.3848C29.8665 9.14725 29.7861 8.84403 29.5501 8.70487L29.8001 8.26981C30.0049 7.91947 30.0591 7.50101 29.95 7.1099ZM28.0649 7.24979C28.1311 7.13407 28.241 7.04935 28.3701 7.01493C28.4985 6.98319 28.6343 7.00101 28.75 7.06498C28.866 7.13114 28.9504 7.241 28.9851 7.36991C29.0169 7.49833 28.999 7.63407 28.9351 7.74979L28.6851 8.18485L27.8149 7.68485L28.0649 7.24979ZM21.25 21.21L21 21.065L20.26 20.6348L20.97 18.7349L22.5449 19.6448L21.25 21.21ZM19.75 22.6548C19.5388 22.5076 19.4739 22.2244 19.6001 21.9998L19.8501 21.565L20.72 22.065L20.47 22.4949C20.3999 22.6165 20.2822 22.7029 20.1453 22.7334C20.0083 22.7637 19.865 22.7354 19.75 22.6548ZM23.115 18.825L21.385 17.825L25.385 10.8948L27.115 11.8948L23.115 18.825ZM27.615 11.0298L25.885 10.0298L26.885 8.29984L28.615 9.29984L27.615 11.0298Z" fill="#EF855B"/>
<path d="M7.88989 22.4048L6.12011 24.1699L5.06006 23.1099C4.86499 22.916 4.55005 22.916 4.35498 23.1099C4.26025 23.2039 4.20703 23.3316 4.20703 23.4649C4.20703 23.5982 4.26025 23.7261 4.35498 23.8198L5.41504 24.8799C5.60254 25.0659 5.85595 25.1702 6.12011 25.1699C6.38574 25.1714 6.64135 25.0671 6.83007 24.8799L8.59496 23.1099C8.76488 22.9114 8.75341 22.6157 8.56884 22.4312C8.38403 22.2464 8.08837 22.2349 7.88989 22.4048Z" fill="#EF855B"/>
<path d="M2 23.7498C2 26.0972 3.90283 27.9998 6.25 27.9998C8.59717 27.9998 10.5 26.0972 10.5 23.7498C10.5 23.4737 10.2761 23.2498 10 23.2498C9.72388 23.2498 9.5 23.4737 9.5 23.7498C9.5 25.5447 8.04492 26.9998 6.25 26.9998C4.45508 26.9998 3 25.5447 3 23.7498C3 21.9549 4.45508 20.4998 6.25 20.4998C6.95361 20.4978 7.63843 20.7261 8.19995 21.1499C8.4209 21.3157 8.73438 21.2708 8.8999 21.0498C9.06568 20.8289 9.021 20.5156 8.80005 20.3499C7.51221 19.384 5.78906 19.2288 4.34937 19.9485C2.90942 20.6685 2 22.1402 2 23.7498Z" fill="#EF855B"/>
<path d="M18 3.99978C18.2761 3.99978 18.5 3.77615 18.5 3.49978C18.5 3.22366 18.2761 2.99978 18 2.99978H5C4.72388 2.99978 4.5 3.22366 4.5 3.49978V5.49978C4.5 5.77615 4.72388 5.99978 5 5.99978H18C18.2761 5.99978 18.5 5.77615 18.5 5.49978C18.5 5.22366 18.2761 4.99978 18 4.99978H5.5V3.99978H18Z" fill="#EF855B"/>
<path d="M6.5 6.99979C6.22388 6.99979 6 7.22366 6 7.49978C6 7.77615 6.22388 7.99978 6.5 7.99978H16.5C16.7761 7.99978 17 7.77615 17 7.49978C17 7.22366 16.7761 6.99979 16.5 6.99979H6.5Z" fill="#EF855B"/>
<path d="M19.5 10.4998H8.5C8.22388 10.4998 8 10.7236 8 10.9998C8 11.2761 8.22388 11.4998 8.5 11.4998H19.5C19.7761 11.4998 20 11.2761 20 10.9998C20 10.7236 19.7761 10.4998 19.5 10.4998Z" fill="#EF855B"/>
<path d="M14.5 13.9998C14.5 13.7237 14.2761 13.4998 14 13.4998H4C3.72388 13.4998 3.5 13.7237 3.5 13.9998C3.5 14.2762 3.72388 14.4998 4 14.4998H14C14.2761 14.4998 14.5 14.2762 14.5 13.9998Z" fill="#EF855B"/>
<path d="M19.5 13.4998H16C15.7239 13.4998 15.5 13.7237 15.5 13.9998C15.5 14.2762 15.7239 14.4998 16 14.4998H19.5C19.7761 14.4998 20 14.2762 20 13.9998C20 13.7237 19.7761 13.4998 19.5 13.4998Z" fill="#EF855B"/>
<path d="M9 16.9998C9.27612 16.9998 9.5 16.7761 9.5 16.4998C9.5 16.2236 9.27612 15.9998 9 15.9998H4C3.72388 15.9998 3.5 16.2236 3.5 16.4998C3.5 16.7761 3.72388 16.9998 4 16.9998H9Z" fill="#EF855B"/>
<path d="M11 16.9998H14.5C14.7761 16.9998 15 16.7761 15 16.4998C15 16.2236 14.7761 15.9998 14.5 15.9998H11C10.7239 15.9998 10.5 16.2236 10.5 16.4998C10.5 16.7761 10.7239 16.9998 11 16.9998Z" fill="#EF855B"/>
<path d="M22.5 23C22.2239 23 22 23.2239 22 23.5V28.5C22 28.7764 21.7761 29 21.5 29H1.5C1.22388 29 1 28.7764 1 28.5V1.5C1 1.22388 1.22388 1 1.5 1H21.5C21.7761 1 22 1.22388 22 1.5V10.8901C22 11.1663 22.2239 11.3901 22.5 11.3901C22.7761 11.3901 23 11.1663 23 10.8901V1.5C23 0.671631 22.3284 0 21.5 0H1.5C0.671631 0 0 0.671631 0 1.5V28.5C0 29.3286 0.671631 30 1.5 30H21.5C22.3284 30 23 29.3286 23 28.5V23.5C23 23.2239 22.7761 23 22.5 23Z" fill="#EF855B"/>
</svg>
